PathFileType	4	(X/Y/Z)	/Volumes/GoogleDrive/My Drive/Research/Stanford/Projects/Digital Athlete Project/Sprinting/Sprint Simulation/sprinter/subjects/JA1/experimental_data/TRC/run0900cms.trc
DataRate	CameraRate	NumFrames	NumMarkers	Units	OrigDataRate	OrigDataStartFrame	OrigNumFrames
250.000000	250.000000	4	53	mm	250.000000	202	323
Frame#	Time	C7			RSH			LSH			MAN			T7			LARM			LELB			LFOREARM			LWR			RARM			RELB			RFOREARM			RWR			RASI			LASI			SACR			P1			P2			P3			LTHLP			LTHLD			LTHAP			LTHAD			LLEPI			LPAT			LTIAP			LTIAD			LTILAT			LLMAL			LHEEL			LMFS			LMFL			LP1MT			LTOE			LP5MT			RTHLP			RTHLD			RTHAP			RTHAD			RLEPI			RPAT			RTIAP			RTIAD			RTILAT			RLMAL			RHEEL			RMFS			RMFL			RP1MT			RTOE			RP5MT			x52			x53			
		X1	Y1	Z1	X2	Y2	Z2	X3	Y3	Z3	X4	Y4	Z4	X5	Y5	Z5	X6	Y6	Z6	X7	Y7	Z7	X8	Y8	Z8	X9	Y9	Z9	X10	Y10	Z10	X11	Y11	Z11	X12	Y12	Z12	X13	Y13	Z13	X14	Y14	Z14	X15	Y15	Z15	X16	Y16	Z16	X17	Y17	Z17	X18	Y18	Z18	X19	Y19	Z19	X20	Y20	Z20	X21	Y21	Z21	X22	Y22	Z22	X23	Y23	Z23	X24	Y24	Z24	X25	Y25	Z25	X26	Y26	Z26	X27	Y27	Z27	X28	Y28	Z28	X29	Y29	Z29	X30	Y30	Z30	X31	Y31	Z31	X32	Y32	Z32	X33	Y33	Z33	X34	Y34	Z34	X35	Y35	Z35	X36	Y36	Z36	X37	Y37	Z37	X38	Y38	Z38	X39	Y39	Z39	X40	Y40	Z40	X41	Y41	Z41	X42	Y42	Z42	X43	Y43	Z43	X44	Y44	Z44	X45	Y45	Z45	X46	Y46	Z46	X47	Y47	Z47	X48	Y48	Z48	X49	Y49	Z49	X50	Y50	Z50	X51	Y51	Z51	X52	Y52	Z52	X53	Y53	Z53	
202	0.808000	1686.697144	1481.026733	229.283722	1718.701538	1438.455322	407.223846	1740.456055	1472.334473	65.463455	1805.183960	1359.608765	246.150101	1581.878540	1309.942871	199.877304	1711.498413	1272.467163	-26.570724	1697.581665	1133.893188	-50.258736	1819.143677	1058.567993	10.107423	1911.491089	983.839783	54.596565	1582.622803	1320.909302	497.527924	1473.768921	1241.303955	548.420837	1506.202148	1092.355957	552.252197	1520.497925	958.730713	544.082092	1723.579346	1015.104248	306.870636	1717.406982	984.764343	96.365662	1540.039062	1060.581055	214.237488	1528.509155	1032.538330	164.137161	1522.197144	1033.663452	269.451569	1493.778809	978.779236	216.194504	1535.967285	708.280457	39.113873	1512.883057	597.359436	54.641823	1661.436279	663.290833	115.313950	1621.478516	553.925598	122.548409	1480.100464	502.222931	80.409180	1520.717896	419.960571	145.468796	1351.454956	578.011230	175.046997	1265.907593	689.999634	184.732895	1329.717163	655.314453	103.346474	1191.828247	817.922607	138.365952	1242.827515	871.872192	180.106842	1101.116455	780.764404	204.196930	1105.838745	821.886536	145.304138	1019.149658	814.145996	258.264404	1002.015381	787.571289	222.246857	1021.106018	838.574829	135.523788	1709.178345	764.775024	426.765411	1784.053467	681.415833	419.889252	1838.161743	806.256897	375.757019	1888.960693	733.753174	374.509338	1874.054199	563.964600	394.362671	1964.264038	609.028870	370.477692	1952.513672	368.847260	300.655518	1966.748291	245.266541	270.364563	1892.940063	337.433014	361.719452	1946.346924	106.073555	296.250244	1904.509888	82.782906	219.851227	2058.731445	123.136612	285.703217	2018.579468	63.899509	309.157471	2139.278320	102.951920	250.727554	2141.486328	108.163536	302.209686	2091.803711	21.858667	335.078979	1528.492676	884.002747	539.513123	1958.426758	945.859131	77.208176
203	0.812000	1725.436035	1479.933228	231.029343	1758.200562	1436.196777	408.172028	1777.937256	1469.951904	65.110962	1843.788818	1357.894409	245.452042	1619.926636	1308.980835	201.360886	1744.268921	1270.645508	-25.536547	1726.871460	1131.525879	-49.872929	1842.194580	1043.686768	4.442111	1928.041626	956.875916	42.718719	1628.237671	1311.427734	501.599731	1523.639526	1226.894775	553.771606	1563.270142	1079.957886	554.032532	1583.365112	947.628052	543.324951	1759.866699	1014.122192	307.778198	1754.146729	984.282166	96.248230	1577.273071	1060.361328	214.912918	1565.926270	1032.571167	163.681244	1559.519287	1033.391357	269.681427	1531.065796	978.480591	216.111969	1581.887573	703.468689	38.788578	1563.782227	591.548035	53.507259	1708.824463	662.701355	116.233849	1672.159424	551.640381	123.045219	1534.767456	496.458527	79.993279	1576.662964	415.005402	144.963684	1409.695312	574.581543	175.309799	1326.604980	688.894653	185.139114	1388.770386	652.455872	103.255447	1256.588013	817.825256	138.512497	1309.093018	871.221191	180.347397	1164.633179	782.589294	204.363129	1170.383789	823.290344	144.995773	1082.367310	816.662842	257.708466	1065.063721	790.380066	221.686279	1086.119263	840.555298	134.407700	1738.338257	761.273193	425.758209	1815.165283	677.386230	419.509583	1871.849243	803.941772	379.612762	1923.386719	729.290710	380.089844	1900.423706	556.493469	394.976990	1989.675781	600.487549	373.280731	1973.747559	359.545868	300.534271	1985.491089	235.997223	270.026001	1913.776733	330.086761	361.041748	1959.663208	97.350677	295.318237	1915.719116	77.024406	219.661652	2071.869629	109.875320	284.552063	2030.178101	52.189812	307.161835	2151.150146	86.394272	249.232681	2154.571045	91.999893	301.538330	2101.313721	7.735038	334.508850	1594.602905	873.624573	537.336853	1971.673340	912.754272	62.172813
204	0.816000	1763.960327	1478.751221	232.396271	1797.577515	1433.914917	409.121948	1815.148926	1467.272583	65.066841	1882.363403	1355.993042	244.734863	1658.062134	1307.818726	203.327133	1777.613892	1268.723389	-24.421305	1756.719482	1129.353149	-49.343410	1865.421875	1029.285034	-1.868623	1942.641724	931.484985	30.094610	1675.137695	1301.000488	504.843628	1574.484863	1212.704224	559.151978	1620.635620	1067.845459	555.668335	1646.603882	937.244690	542.493347	1796.567993	1012.877869	308.987579	1790.363647	983.426147	96.415390	1615.234863	1059.855591	214.616882	1603.619141	1031.982788	163.883865	1596.671997	1033.237793	269.427338	1568.411987	978.357849	215.961319	1628.707642	698.430603	38.426689	1615.517456	585.665405	52.200508	1756.019531	661.924988	117.426628	1724.303711	549.379700	123.668816	1590.261230	491.156372	79.180031	1633.326172	410.596130	144.726135	1468.297852	570.470398	175.719650	1389.038940	685.764038	184.155670	1448.280518	648.674438	102.987129	1320.075195	816.851013	138.864883	1372.744507	870.367249	180.372986	1227.884155	782.219055	204.684128	1234.408203	823.003845	144.970612	1146.156860	816.852905	255.773300	1128.098999	789.605652	221.116623	1150.277466	840.204590	133.823914	1771.754883	757.887878	426.276245	1846.034058	672.961853	419.393616	1906.364014	802.130798	383.015747	1955.157471	723.653076	384.764069	1927.418823	549.174561	395.257294	2015.956299	591.445618	374.747284	1994.502808	350.177582	300.779907	2001.765991	226.136551	270.007019	1933.429199	322.732361	360.829224	1972.185547	88.492508	295.191742	1926.760864	70.155914	220.006821	2086.569092	96.908272	284.074921	2039.206177	40.756420	307.171875	2164.297119	69.888107	244.454102	2169.096924	77.320358	298.129364	2104.630127	5.212927	336.304352	1661.126343	864.208130	535.125427	1981.888672	881.778076	46.339928
205	0.820000	1802.257324	1477.343262	233.707764	1836.849609	1432.158936	409.928314	1852.245361	1464.270630	65.281937	1920.936035	1354.595215	244.336716	1696.102295	1306.512329	205.366455	1811.842163	1266.247437	-23.488644	1787.415771	1127.008667	-48.965122	1887.370728	1016.091553	-8.564921	1954.852661	908.325928	17.123884	1722.109375	1291.408936	508.443298	1627.554810	1197.247803	563.122375	1679.763916	1056.272949	556.615784	1713.337524	927.853943	541.393005	1833.447144	1011.824768	310.530029	1828.750366	982.405518	97.866203	1652.900757	1059.336182	214.771881	1641.739868	1031.186768	163.427505	1633.979492	1032.800903	268.977631	1606.184570	977.699036	215.338226	1676.002930	693.254150	38.010189	1667.692383	579.906982	50.743347	1804.111206	661.499207	118.473999	1775.736938	548.013245	124.226517	1646.456909	485.907654	78.371758	1690.947510	406.324982	144.660614	1528.384888	565.720886	175.639038	1450.172852	682.375305	184.606323	1508.600342	644.292969	103.073647	1383.331787	814.419983	139.841354	1435.718750	868.289734	180.904953	1290.662231	780.438232	205.226425	1297.673340	820.360962	144.873749	1208.758179	814.783447	255.254807	1190.461182	787.713440	220.031631	1213.557373	837.425415	133.325089	1804.072266	754.829590	425.541687	1876.107910	668.150879	419.793152	1940.252197	799.711426	385.884552	1986.212036	716.752319	387.579468	1953.366821	541.673096	395.809509	2041.061768	582.559692	375.850739	2014.338867	340.470306	300.873749	2017.460938	216.367020	269.387604	1952.226929	315.342712	361.400970	1982.717041	81.551529	293.739960	1933.775879	61.889801	222.355728	2097.172607	87.039444	281.460358	2046.439453	34.148758	307.788696	2172.267334	55.098110	236.340515	2178.035400	62.494553	289.852234	2110.142822	5.013340	336.185150	1732.113159	856.037476	532.879883	1989.150391	853.554016	30.180222
